<svg width="166" height="26" viewBox="0 0 166 26" fill="none" xmlns="http://www.w3.org/2000/svg">
<path d="M16.0341 9.32955C15.9053 8.85227 15.7159 8.43182 15.4659 8.06818C15.2159 7.69697 14.9091 7.38258 14.5455 7.125C14.1818 6.86742 13.7652 6.67424 13.2955 6.54545C12.8258 6.40909 12.3106 6.34091 11.75 6.34091C10.6212 6.34091 9.64394 6.61364 8.81818 7.15909C8 7.70454 7.36742 8.5 6.92045 9.54545C6.47348 10.5833 6.25 11.8447 6.25 13.3295C6.25 14.822 6.46591 16.0947 6.89773 17.1477C7.32955 18.2008 7.95455 19.0038 8.77273 19.5568C9.59091 20.1098 10.5833 20.3864 11.75 20.3864C12.7803 20.3864 13.6515 20.2197 14.3636 19.8864C15.0833 19.5455 15.6288 19.0644 16 18.4432C16.3712 17.822 16.5568 17.0909 16.5568 16.25L17.6023 16.375H11.9432V12.2727H21.9773V15.3523C21.9773 17.4356 21.5341 19.2197 20.6477 20.7045C19.7689 22.1894 18.5568 23.3295 17.0114 24.125C15.4735 24.9205 13.7045 25.3182 11.7045 25.3182C9.48485 25.3182 7.53409 24.8371 5.85227 23.875C4.17045 22.9129 2.85985 21.5417 1.92045 19.7614C0.981061 17.9735 0.511364 15.8523 0.511364 13.3977C0.511364 11.4886 0.795455 9.79545 1.36364 8.31818C1.93182 6.83333 2.72348 5.57576 3.73864 4.54545C4.76136 3.51515 5.94318 2.73485 7.28409 2.20454C8.63258 1.67424 10.0833 1.40909 11.6364 1.40909C12.9848 1.40909 14.2386 1.60227 15.3977 1.98864C16.5644 2.375 17.5947 2.92045 18.4886 3.625C19.3902 4.32955 20.1212 5.16667 20.6818 6.13636C21.2424 7.10606 21.5909 8.17045 21.7273 9.32955H16.0341ZM34.4117 25.3295C32.5859 25.3295 31.0102 24.9697 29.6844 24.25C28.3662 23.5227 27.3511 22.4886 26.639 21.1477C25.9344 19.7992 25.5822 18.197 25.5822 16.3409C25.5822 14.5379 25.9382 12.9621 26.6503 11.6136C27.3625 10.2576 28.3662 9.20454 29.6617 8.45454C30.9572 7.69697 32.4837 7.31818 34.2412 7.31818C35.4837 7.31818 36.62 7.51136 37.6503 7.89773C38.6806 8.28409 39.5708 8.85606 40.3208 9.61364C41.0708 10.3712 41.6541 11.3068 42.0708 12.4205C42.4875 13.5265 42.6958 14.7955 42.6958 16.2273V17.6136H27.5253V14.3864H37.5253C37.5178 13.7955 37.3776 13.2689 37.1049 12.8068C36.8322 12.3447 36.4572 11.9848 35.9799 11.7273C35.5102 11.4621 34.9685 11.3295 34.3549 11.3295C33.7337 11.3295 33.1769 11.4697 32.6844 11.75C32.192 12.0227 31.8019 12.3977 31.514 12.875C31.2261 13.3447 31.0746 13.8788 31.0594 14.4773V17.7614C31.0594 18.4735 31.1996 19.0985 31.4799 19.6364C31.7602 20.1667 32.1579 20.5795 32.6731 20.875C33.1882 21.1705 33.8019 21.3182 34.514 21.3182C35.0064 21.3182 35.4534 21.25 35.8549 21.1136C36.2564 20.9773 36.6011 20.7765 36.889 20.5114C37.1769 20.2462 37.3928 19.9205 37.5367 19.5341L42.639 19.6818C42.4269 20.8258 41.9609 21.822 41.2412 22.6705C40.5291 23.5114 39.5935 24.1667 38.4344 24.6364C37.2753 25.0985 35.9344 25.3295 34.4117 25.3295ZM52.0507 15.0455V25H46.4939V7.54545H51.778V10.75H51.9711C52.3575 9.68182 53.0166 8.8447 53.9484 8.23864C54.8802 7.625 55.9901 7.31818 57.278 7.31818C58.5052 7.31818 59.5696 7.5947 60.4711 8.14773C61.3802 8.69318 62.0848 9.45833 62.5848 10.4432C63.0923 11.4205 63.3423 12.5644 63.3348 13.875V25H57.778V14.9659C57.7855 13.9962 57.5393 13.2386 57.0393 12.6932C56.5469 12.1477 55.8613 11.875 54.9825 11.875C54.3992 11.875 53.884 12.0038 53.437 12.2614C52.9977 12.5114 52.6567 12.8712 52.4143 13.3409C52.1795 13.8106 52.0583 14.3788 52.0507 15.0455ZM67.7351 25V7.54545H73.2919V25H67.7351ZM70.5192 5.51136C69.7389 5.51136 69.0684 5.25379 68.5078 4.73864C67.9472 4.21591 67.6669 3.58712 67.6669 2.85227C67.6669 2.125 67.9472 1.50379 68.5078 0.988636C69.0684 0.465908 69.7389 0.204544 70.5192 0.204544C71.3071 0.204544 71.9775 0.465908 72.5306 0.988636C73.0912 1.50379 73.3715 2.125 73.3715 2.85227C73.3715 3.58712 73.0912 4.21591 72.5306 4.73864C71.9775 5.25379 71.3071 5.51136 70.5192 5.51136ZM77.7889 25V7.54545H83.073V10.75H83.2661C83.6298 9.68939 84.2434 8.85227 85.107 8.23864C85.9707 7.625 87.001 7.31818 88.198 7.31818C89.4101 7.31818 90.448 7.62879 91.3116 8.25C92.1752 8.87121 92.7245 9.70455 92.9593 10.75H93.1411C93.4669 9.71212 94.1033 8.88258 95.0502 8.26136C95.9972 7.63258 97.1146 7.31818 98.4025 7.31818C100.054 7.31818 101.395 7.84848 102.425 8.90909C103.456 9.96212 103.971 11.4091 103.971 13.25V25H98.4139V14.5227C98.4139 13.6515 98.1904 12.9886 97.7434 12.5341C97.2964 12.072 96.7169 11.8409 96.0048 11.8409C95.2396 11.8409 94.6373 12.0909 94.198 12.5909C93.7661 13.0833 93.5502 13.7462 93.5502 14.5795V25H88.2093V14.4659C88.2093 13.6553 87.9896 13.0152 87.5502 12.5455C87.1108 12.0758 86.5313 11.8409 85.8116 11.8409C85.3267 11.8409 84.8987 11.9583 84.5275 12.1932C84.1563 12.4205 83.8646 12.7462 83.6525 13.1705C83.448 13.5947 83.3457 14.0947 83.3457 14.6705V25H77.7889ZM116.533 25.3295C114.707 25.3295 113.131 24.9697 111.806 24.25C110.488 23.5227 109.472 22.4886 108.76 21.1477C108.056 19.7992 107.703 18.197 107.703 16.3409C107.703 14.5379 108.059 12.9621 108.772 11.6136C109.484 10.2576 110.488 9.20454 111.783 8.45454C113.078 7.69697 114.605 7.31818 116.363 7.31818C117.605 7.31818 118.741 7.51136 119.772 7.89773C120.802 8.28409 121.692 8.85606 122.442 9.61364C123.192 10.3712 123.775 11.3068 124.192 12.4205C124.609 13.5265 124.817 14.7955 124.817 16.2273V17.6136H109.647V14.3864H119.647C119.639 13.7955 119.499 13.2689 119.226 12.8068C118.953 12.3447 118.578 11.9848 118.101 11.7273C117.631 11.4621 117.09 11.3295 116.476 11.3295C115.855 11.3295 115.298 11.4697 114.806 11.75C114.313 12.0227 113.923 12.3977 113.635 12.875C113.347 13.3447 113.196 13.8788 113.181 14.4773V17.7614C113.181 18.4735 113.321 19.0985 113.601 19.6364C113.881 20.1667 114.279 20.5795 114.794 20.875C115.309 21.1705 115.923 21.3182 116.635 21.3182C117.128 21.3182 117.575 21.25 117.976 21.1136C118.378 20.9773 118.722 20.7765 119.01 20.5114C119.298 20.2462 119.514 19.9205 119.658 19.5341L124.76 19.6818C124.548 20.8258 124.082 21.822 123.363 22.6705C122.65 23.5114 121.715 24.1667 120.556 24.6364C119.397 25.0985 118.056 25.3295 116.533 25.3295ZM134.99 25.25C133.702 25.25 132.532 24.9167 131.479 24.25C130.426 23.5833 129.585 22.5833 128.956 21.25C128.327 19.9167 128.013 18.2614 128.013 16.2841C128.013 14.2311 128.339 12.5417 128.99 11.2159C129.642 9.89015 130.494 8.90909 131.547 8.27273C132.608 7.63636 133.748 7.31818 134.967 7.31818C135.884 7.31818 136.668 7.47727 137.32 7.79545C137.971 8.10606 138.509 8.50758 138.933 9C139.358 9.49242 139.68 10.0038 139.899 10.5341H140.013V1.72727H145.57V25H140.07V22.1705H139.899C139.664 22.7083 139.331 23.2121 138.899 23.6818C138.467 24.1515 137.926 24.5303 137.274 24.8182C136.63 25.1061 135.869 25.25 134.99 25.25ZM136.922 20.9205C137.596 20.9205 138.172 20.7311 138.649 20.3523C139.126 19.9659 139.494 19.4242 139.751 18.7273C140.009 18.0303 140.138 17.2121 140.138 16.2727C140.138 15.3182 140.009 14.4962 139.751 13.8068C139.501 13.1174 139.134 12.5871 138.649 12.2159C138.172 11.8447 137.596 11.6591 136.922 11.6591C136.233 11.6591 135.649 11.8485 135.172 12.2273C134.695 12.6061 134.331 13.1402 134.081 13.8295C133.839 14.5189 133.717 15.3333 133.717 16.2727C133.717 17.2121 133.842 18.0303 134.092 18.7273C134.342 19.4242 134.702 19.9659 135.172 20.3523C135.649 20.7311 136.233 20.9205 136.922 20.9205ZM165.283 12.875L160.18 13.0114C160.127 12.6477 159.983 12.3258 159.748 12.0455C159.514 11.7576 159.207 11.5341 158.828 11.375C158.457 11.2083 158.025 11.125 157.533 11.125C156.889 11.125 156.339 11.2538 155.885 11.5114C155.438 11.7689 155.218 12.1174 155.226 12.5568C155.218 12.8977 155.354 13.1932 155.635 13.4432C155.923 13.6932 156.434 13.8939 157.169 14.0455L160.533 14.6818C162.275 15.0152 163.57 15.5682 164.419 16.3409C165.275 17.1136 165.707 18.1364 165.714 19.4091C165.707 20.6061 165.351 21.6477 164.646 22.5341C163.949 23.4205 162.995 24.1098 161.783 24.6023C160.57 25.0871 159.184 25.3295 157.623 25.3295C155.131 25.3295 153.165 24.8182 151.726 23.7955C150.294 22.7652 149.476 21.3864 149.271 19.6591L154.76 19.5227C154.881 20.1591 155.195 20.6439 155.703 20.9773C156.211 21.3106 156.858 21.4773 157.646 21.4773C158.358 21.4773 158.938 21.3447 159.385 21.0795C159.832 20.8144 160.059 20.4621 160.067 20.0227C160.059 19.6288 159.885 19.3144 159.544 19.0795C159.203 18.8371 158.669 18.6477 157.942 18.5114L154.896 17.9318C153.146 17.6136 151.843 17.0265 150.987 16.1705C150.131 15.3068 149.707 14.2083 149.714 12.875C149.707 11.7083 150.017 10.7121 150.646 9.88636C151.275 9.05303 152.169 8.41667 153.328 7.97727C154.487 7.53788 155.854 7.31818 157.43 7.31818C159.794 7.31818 161.658 7.81439 163.021 8.80682C164.385 9.79167 165.139 11.1477 165.283 12.875Z" fill="#65A30D"/>
</svg>
