<svg width="19" height="19" viewBox="0 0 19 19" fill="none" xmlns="http://www.w3.org/2000/svg">
<path id="Vector" d="M13.2121 12.1361C14.3016 10.6495 14.7895 8.80632 14.5784 6.97538C14.3672 5.14443 13.4725 3.46073 12.0732 2.26112C10.674 1.06151 8.87339 0.434463 7.03168 0.505428C5.18996 0.576392 3.44295 1.34013 2.14016 2.64386C0.837367 3.94758 0.0748746 5.69514 0.00522789 7.5369C-0.0644189 9.37867 0.563916 11.1788 1.76453 12.5772C2.96514 13.9756 4.64948 14.8691 6.48058 15.079C8.31167 15.2888 10.1545 14.7995 11.6403 13.709H11.6392C11.673 13.754 11.709 13.7968 11.7495 13.8384L16.0812 18.1701C16.2921 18.3812 16.5783 18.4999 16.8768 18.5C17.1753 18.5001 17.4615 18.3816 17.6726 18.1707C17.8838 17.9597 18.0024 17.6735 18.0025 17.3751C18.0026 17.0766 17.8842 16.7903 17.6732 16.5792L13.3415 12.2475C13.3013 12.2068 13.258 12.1703 13.2121 12.1361ZM13.5024 7.81117C13.5024 8.62381 13.3423 9.42849 13.0314 10.1793C12.7204 10.93 12.2646 11.6122 11.6899 12.1868C11.1153 12.7615 10.4331 13.2173 9.68236 13.5283C8.93158 13.8392 8.1269 13.9993 7.31426 13.9993C6.50163 13.9993 5.69695 13.8392 4.94617 13.5283C4.19539 13.2173 3.51321 12.7615 2.93859 12.1868C2.36397 11.6122 1.90815 10.93 1.59717 10.1793C1.28619 9.42849 1.12613 8.62381 1.12613 7.81117C1.12613 6.16997 1.77809 4.596 2.93859 3.4355C4.09909 2.27499 5.67307 1.62303 7.31426 1.62303C8.95546 1.62303 10.5294 2.27499 11.6899 3.4355C12.8504 4.596 13.5024 6.16997 13.5024 7.81117Z" fill="black" fill-opacity="0.25"/>
</svg>
